<?xml version="1.0" encoding="UTF-8"?>
<svg xmlns="http://www.w3.org/2000/svg" xmlns:xlink="http://www.w3.org/1999/xlink" width="230.305" height="74.718" viewBox="0 0 230.305 74.718">
<defs>
<clipPath id="clip-0">
<path clip-rule="nonzero" d="M 0.0859375 0 L 229.527344 0 L 229.527344 74.4375 L 0.0859375 74.4375 Z M 0.0859375 0 "/>
</clipPath>
</defs>
<g clip-path="url(#clip-0)">
<path fill-rule="nonzero" fill="rgb(89.99939%, 89.99939%, 89.99939%)" fill-opacity="1" d="M 0.0859375 74.4375 L 229.527344 74.4375 L 229.527344 0 L 0.0859375 0 Z M 0.0859375 74.4375 "/>
</g>
<path fill-rule="nonzero" fill="rgb(100%, 0%, 0%)" fill-opacity="1" d="M 2.910156 53.460938 L 2.910156 18.960938 L 22.226562 37.113281 L 22.226562 71.613281 Z M 2.910156 53.460938 "/>
<path fill-rule="nonzero" fill="rgb(100%, 39.99939%, 39.99939%)" fill-opacity="1" d="M 128.375 58.398438 L 22.226562 71.613281 L 22.226562 37.113281 L 128.375 23.902344 Z M 128.375 58.398438 "/>
<path fill-rule="nonzero" fill="rgb(100%, 59.999084%, 59.999084%)" fill-opacity="1" d="M 109.058594 5.75 L 128.375 23.902344 L 22.226562 37.113281 L 2.910156 18.960938 Z M 109.058594 5.75 "/>
<path fill-rule="nonzero" fill="rgb(100%, 0%, 0%)" fill-opacity="1" d="M 91.332031 13.09375 C 93.199219 14.847656 98.871094 15.753906 104 15.113281 C 109.128906 14.476562 111.773438 12.535156 109.90625 10.78125 C 108.039062 9.027344 102.367188 8.125 97.238281 8.761719 C 92.109375 9.398438 89.464844 11.339844 91.332031 13.09375 Z M 91.332031 13.09375 "/>
<path fill-rule="nonzero" fill="rgb(100%, 0%, 0%)" fill-opacity="1" d="M 90.695312 11.9375 L 90.695312 6.636719 L 110.546875 6.636719 L 110.546875 11.9375 "/>
<path fill-rule="nonzero" fill="rgb(100%, 59.999084%, 59.999084%)" fill-opacity="1" d="M 91.332031 7.792969 C 93.199219 9.550781 98.871094 10.453125 104 9.816406 C 109.128906 9.175781 111.773438 7.238281 109.90625 5.480469 C 108.039062 3.726562 102.367188 2.824219 97.238281 3.460938 C 92.109375 4.101562 89.464844 6.039062 91.332031 7.792969 Z M 91.332031 7.792969 "/>
<path fill-rule="nonzero" fill="rgb(100%, 0%, 0%)" fill-opacity="1" d="M 100.988281 22.171875 C 102.855469 23.925781 108.527344 24.828125 113.660156 24.191406 C 118.789062 23.554688 121.433594 21.613281 119.566406 19.859375 C 117.699219 18.105469 112.027344 17.199219 106.898438 17.839844 C 101.769531 18.476562 99.121094 20.417969 100.988281 22.171875 Z M 100.988281 22.171875 "/>
<path fill-rule="nonzero" fill="rgb(100%, 0%, 0%)" fill-opacity="1" d="M 100.351562 21.015625 L 100.351562 15.714844 L 120.203125 15.714844 L 120.203125 21.015625 "/>
<path fill-rule="nonzero" fill="rgb(100%, 59.999084%, 59.999084%)" fill-opacity="1" d="M 100.988281 16.871094 C 102.855469 18.625 108.527344 19.53125 113.660156 18.890625 C 118.789062 18.253906 121.433594 16.3125 119.566406 14.558594 C 117.699219 12.804688 112.027344 11.898438 106.898438 12.539062 C 101.769531 13.175781 99.121094 15.117188 100.988281 16.871094 Z M 100.988281 16.871094 "/>
<path fill-rule="nonzero" fill="rgb(100%, 0%, 0%)" fill-opacity="1" d="M 64.792969 16.398438 C 66.660156 18.152344 72.332031 19.058594 77.460938 18.417969 C 82.59375 17.78125 85.238281 15.839844 83.371094 14.085938 C 81.503906 12.332031 75.832031 11.425781 70.703125 12.066406 C 65.570312 12.703125 62.925781 14.644531 64.792969 16.398438 Z M 64.792969 16.398438 "/>
<path fill-rule="nonzero" fill="rgb(100%, 0%, 0%)" fill-opacity="1" d="M 64.15625 15.242188 L 64.15625 9.941406 L 84.007812 9.941406 L 84.007812 15.242188 "/>
<path fill-rule="nonzero" fill="rgb(100%, 59.999084%, 59.999084%)" fill-opacity="1" d="M 64.792969 11.097656 C 66.660156 12.851562 72.332031 13.757812 77.460938 13.117188 C 82.59375 12.480469 85.238281 10.539062 83.371094 8.785156 C 81.503906 7.03125 75.832031 6.125 70.703125 6.765625 C 65.570312 7.402344 62.925781 9.34375 64.792969 11.097656 Z M 64.792969 11.097656 "/>
<path fill-rule="nonzero" fill="rgb(100%, 0%, 0%)" fill-opacity="1" d="M 74.453125 25.472656 C 76.320312 27.230469 81.992188 28.132812 87.121094 27.496094 C 92.25 26.855469 94.894531 24.917969 93.027344 23.160156 C 91.160156 21.40625 85.488281 20.503906 80.359375 21.140625 C 75.230469 21.78125 72.585938 23.71875 74.453125 25.472656 Z M 74.453125 25.472656 "/>
<path fill-rule="nonzero" fill="rgb(100%, 0%, 0%)" fill-opacity="1" d="M 73.816406 24.316406 L 73.816406 19.019531 L 93.667969 19.019531 L 93.667969 24.316406 "/>
<path fill-rule="nonzero" fill="rgb(100%, 59.999084%, 59.999084%)" fill-opacity="1" d="M 74.453125 20.175781 C 76.320312 21.929688 81.992188 22.832031 87.121094 22.195312 C 92.25 21.554688 94.894531 19.617188 93.027344 17.863281 C 91.160156 16.105469 85.488281 15.203125 80.359375 15.839844 C 75.230469 16.480469 72.585938 18.417969 74.453125 20.175781 Z M 74.453125 20.175781 "/>
<path fill-rule="nonzero" fill="rgb(100%, 0%, 0%)" fill-opacity="1" d="M 38.257812 19.703125 C 40.125 21.457031 45.796875 22.359375 50.925781 21.722656 C 56.054688 21.082031 58.699219 19.144531 56.832031 17.390625 C 54.964844 15.632812 49.292969 14.730469 44.164062 15.367188 C 39.035156 16.007812 36.390625 17.945312 38.257812 19.703125 Z M 38.257812 19.703125 "/>
<path fill-rule="nonzero" fill="rgb(100%, 0%, 0%)" fill-opacity="1" d="M 37.617188 18.546875 L 37.617188 13.246094 L 57.46875 13.246094 L 57.46875 18.546875 "/>
<path fill-rule="nonzero" fill="rgb(100%, 59.999084%, 59.999084%)" fill-opacity="1" d="M 38.257812 14.402344 C 40.125 16.15625 45.796875 17.058594 50.925781 16.421875 C 56.054688 15.78125 58.699219 13.84375 56.832031 12.089844 C 54.964844 10.335938 49.292969 9.429688 44.164062 10.066406 C 39.035156 10.707031 36.390625 12.648438 38.257812 14.402344 Z M 38.257812 14.402344 "/>
<path fill-rule="nonzero" fill="rgb(100%, 0%, 0%)" fill-opacity="1" d="M 47.914062 28.777344 C 49.78125 30.53125 55.453125 31.4375 60.585938 30.796875 C 65.714844 30.160156 68.359375 28.21875 66.492188 26.464844 C 64.625 24.710938 58.953125 23.804688 53.824219 24.445312 C 48.691406 25.082031 46.046875 27.023438 47.914062 28.777344 Z M 47.914062 28.777344 "/>
<path fill-rule="nonzero" fill="rgb(100%, 0%, 0%)" fill-opacity="1" d="M 47.277344 27.621094 L 47.277344 22.320312 L 67.128906 22.320312 L 67.128906 27.621094 "/>
<path fill-rule="nonzero" fill="rgb(100%, 59.999084%, 59.999084%)" fill-opacity="1" d="M 47.914062 23.476562 C 49.78125 25.230469 55.453125 26.136719 60.585938 25.496094 C 65.714844 24.859375 68.359375 22.917969 66.492188 21.164062 C 64.625 19.410156 58.953125 18.507812 53.824219 19.144531 C 48.691406 19.78125 46.046875 21.722656 47.914062 23.476562 Z M 47.914062 23.476562 "/>
<path fill-rule="nonzero" fill="rgb(100%, 0%, 0%)" fill-opacity="1" d="M 11.71875 23.003906 C 13.585938 24.757812 19.257812 25.664062 24.386719 25.023438 C 29.519531 24.386719 32.164062 22.445312 30.296875 20.691406 C 28.429688 18.9375 22.757812 18.03125 17.625 18.671875 C 12.496094 19.308594 9.851562 21.25 11.71875 23.003906 Z M 11.71875 23.003906 "/>
<path fill-rule="nonzero" fill="rgb(100%, 0%, 0%)" fill-opacity="1" d="M 11.082031 21.847656 L 11.082031 16.546875 L 30.933594 16.546875 L 30.933594 21.847656 "/>
<path fill-rule="nonzero" fill="rgb(100%, 59.999084%, 59.999084%)" fill-opacity="1" d="M 11.71875 17.703125 C 13.585938 19.460938 19.257812 20.363281 24.386719 19.726562 C 29.519531 19.085938 32.164062 17.148438 30.296875 15.390625 C 28.429688 13.636719 22.757812 12.734375 17.625 13.371094 C 12.496094 14.011719 9.851562 15.949219 11.71875 17.703125 Z M 11.71875 17.703125 "/>
<path fill-rule="nonzero" fill="rgb(100%, 0%, 0%)" fill-opacity="1" d="M 21.378906 32.082031 C 23.246094 33.835938 28.917969 34.738281 34.046875 34.101562 C 39.175781 33.464844 41.820312 31.523438 39.953125 29.769531 C 38.085938 28.015625 32.414062 27.109375 27.285156 27.746094 C 22.15625 28.386719 19.511719 30.328125 21.378906 32.082031 Z M 21.378906 32.082031 "/>
<path fill-rule="nonzero" fill="rgb(100%, 0%, 0%)" fill-opacity="1" d="M 20.742188 30.925781 L 20.742188 25.625 L 40.59375 25.625 L 40.59375 30.925781 "/>
<path fill-rule="nonzero" fill="rgb(100%, 59.999084%, 59.999084%)" fill-opacity="1" d="M 21.378906 26.78125 C 23.246094 28.535156 28.917969 29.441406 34.046875 28.800781 C 39.175781 28.164062 41.820312 26.222656 39.953125 24.46875 C 38.085938 22.714844 32.414062 21.808594 27.285156 22.449219 C 22.15625 23.085938 19.511719 25.027344 21.378906 26.78125 Z M 21.378906 26.78125 "/>
<path fill-rule="nonzero" fill="rgb(100%, 50%, 0%)" fill-opacity="1" d="M 131.683594 62.535156 L 131.683594 28.039062 L 141.34375 37.113281 L 141.34375 71.613281 Z M 131.683594 62.535156 "/>
<path fill-rule="nonzero" fill="rgb(100%, 69.999695%, 39.99939%)" fill-opacity="1" d="M 167.878906 68.308594 L 141.34375 71.613281 L 141.34375 37.113281 L 167.878906 33.8125 Z M 167.878906 68.308594 "/>
<path fill-rule="nonzero" fill="rgb(100%, 79.998779%, 59.999084%)" fill-opacity="1" d="M 158.222656 24.734375 L 167.878906 33.8125 L 141.34375 37.113281 L 131.683594 28.039062 Z M 158.222656 24.734375 "/>
<path fill-rule="nonzero" fill="rgb(100%, 50%, 0%)" fill-opacity="1" d="M 140.492188 32.082031 C 142.359375 33.835938 148.03125 34.738281 153.164062 34.101562 C 158.292969 33.464844 160.9375 31.523438 159.070312 29.769531 C 157.203125 28.015625 151.53125 27.109375 146.402344 27.746094 C 141.269531 28.386719 138.625 30.328125 140.492188 32.082031 Z M 140.492188 32.082031 "/>
<path fill-rule="nonzero" fill="rgb(100%, 50%, 0%)" fill-opacity="1" d="M 139.855469 30.925781 L 139.855469 25.625 L 159.707031 25.625 L 159.707031 30.925781 "/>
<path fill-rule="nonzero" fill="rgb(100%, 79.998779%, 59.999084%)" fill-opacity="1" d="M 140.492188 26.78125 C 142.359375 28.535156 148.03125 29.441406 153.164062 28.800781 C 158.292969 28.164062 160.9375 26.222656 159.070312 24.46875 C 157.203125 22.714844 151.53125 21.808594 146.402344 22.449219 C 141.269531 23.085938 138.625 25.027344 140.492188 26.78125 Z M 140.492188 26.78125 "/>
<path fill-rule="nonzero" fill="rgb(0%, 0%, 100%)" fill-opacity="1" d="M 171.1875 44.382812 L 171.1875 9.886719 L 200.164062 37.113281 L 200.164062 71.613281 Z M 171.1875 44.382812 "/>
<path fill-rule="nonzero" fill="rgb(39.99939%, 39.99939%, 100%)" fill-opacity="1" d="M 226.703125 68.308594 L 200.164062 71.613281 L 200.164062 37.113281 L 226.703125 33.8125 Z M 226.703125 68.308594 "/>
<path fill-rule="nonzero" fill="rgb(59.999084%, 59.999084%, 100%)" fill-opacity="1" d="M 197.726562 6.582031 L 226.703125 33.8125 L 200.164062 37.113281 L 171.1875 9.886719 Z M 197.726562 6.582031 "/>
<path fill-rule="nonzero" fill="rgb(0%, 0%, 100%)" fill-opacity="1" d="M 179.996094 13.929688 C 181.863281 15.683594 187.535156 16.585938 192.667969 15.949219 C 197.796875 15.308594 200.441406 13.371094 198.574219 11.617188 C 196.707031 9.863281 191.035156 8.957031 185.90625 9.59375 C 180.773438 10.234375 178.128906 12.175781 179.996094 13.929688 Z M 179.996094 13.929688 "/>
<path fill-rule="nonzero" fill="rgb(0%, 0%, 100%)" fill-opacity="1" d="M 179.359375 12.773438 L 179.359375 7.472656 L 199.210938 7.472656 L 199.210938 12.773438 "/>
<path fill-rule="nonzero" fill="rgb(59.999084%, 59.999084%, 100%)" fill-opacity="1" d="M 179.996094 8.628906 C 181.863281 10.382812 187.535156 11.289062 192.667969 10.648438 C 197.796875 10.011719 200.441406 8.070312 198.574219 6.316406 C 196.707031 4.5625 191.035156 3.65625 185.90625 4.296875 C 180.773438 4.933594 178.128906 6.875 179.996094 8.628906 Z M 179.996094 8.628906 "/>
<path fill-rule="nonzero" fill="rgb(0%, 0%, 100%)" fill-opacity="1" d="M 189.65625 23.003906 C 191.523438 24.757812 197.195312 25.664062 202.324219 25.023438 C 207.453125 24.386719 210.101562 22.445312 208.234375 20.691406 C 206.367188 18.9375 200.695312 18.035156 195.5625 18.671875 C 190.433594 19.308594 187.789062 21.25 189.65625 23.003906 Z M 189.65625 23.003906 "/>
<path fill-rule="nonzero" fill="rgb(0%, 0%, 100%)" fill-opacity="1" d="M 189.019531 21.847656 L 189.019531 16.546875 L 208.871094 16.546875 L 208.871094 21.847656 "/>
<path fill-rule="nonzero" fill="rgb(59.999084%, 59.999084%, 100%)" fill-opacity="1" d="M 189.65625 17.703125 C 191.523438 19.460938 197.195312 20.363281 202.324219 19.726562 C 207.453125 19.085938 210.101562 17.148438 208.234375 15.390625 C 206.367188 13.636719 200.695312 12.734375 195.5625 13.371094 C 190.433594 14.011719 187.789062 15.949219 189.65625 17.703125 Z M 189.65625 17.703125 "/>
<path fill-rule="nonzero" fill="rgb(0%, 0%, 100%)" fill-opacity="1" d="M 199.316406 32.082031 C 201.183594 33.835938 206.855469 34.738281 211.984375 34.101562 C 217.113281 33.464844 219.757812 31.523438 217.890625 29.769531 C 216.023438 28.015625 210.351562 27.109375 205.222656 27.75 C 200.09375 28.386719 197.449219 30.328125 199.316406 32.082031 Z M 199.316406 32.082031 "/>
<path fill-rule="nonzero" fill="rgb(0%, 0%, 100%)" fill-opacity="1" d="M 198.675781 30.925781 L 198.675781 25.625 L 218.53125 25.625 L 218.53125 30.925781 "/>
<path fill-rule="nonzero" fill="rgb(59.999084%, 59.999084%, 100%)" fill-opacity="1" d="M 199.316406 26.78125 C 201.183594 28.535156 206.855469 29.441406 211.984375 28.800781 C 217.113281 28.164062 219.757812 26.222656 217.890625 24.46875 C 216.023438 22.714844 210.351562 21.808594 205.222656 22.449219 C 200.09375 23.085938 197.449219 25.027344 199.316406 26.78125 Z M 199.316406 26.78125 "/>
</svg>
